<svg width="40" height="36" viewBox="0 0 40 36" fill="none" xmlns="http://www.w3.org/2000/svg">
<path d="M7.3 24L13.8 14L12.775 15.55C12.0917 16.5833 11.35 17.725 10.55 18.975C9.75 20.225 9.00833 21.375 8.325 22.425L7.3 24ZM0 28L9 14L0 0H24C24.6667 0 25.2917 0.15 25.875 0.45C26.4583 0.75 26.9333 1.16667 27.3 1.7L35.35 13.05C34.45 12.6833 33.525 12.4083 32.575 12.225C31.625 12.0417 30.6667 11.9667 29.7 12L24 4H7.3L13.8 14L7.3 24H16.15C16.05 24.6667 16 25.3333 16 26C16 26.6667 16.05 27.3333 16.15 28H0ZM28.55 30.5L35.5 23.6L33.4 21.5L28.55 26.25L26.6 24.3L24.5 26.45L28.55 30.5ZM30 36C27.2333 36 24.875 35.025 22.925 33.075C20.975 31.125 20 28.7667 20 26C20 23.2333 20.975 20.875 22.925 18.925C24.875 16.975 27.2333 16 30 16C32.7667 16 35.125 16.975 37.075 18.925C39.025 20.875 40 23.2333 40 26C40 28.7667 39.025 31.125 37.075 33.075C35.125 35.025 32.7667 36 30 36Z" fill="#084656"/>
</svg>
