<svg width="29" height="35" viewBox="0 0 29 35" fill="none" xmlns="http://www.w3.org/2000/svg">
<path d="M0.5 29.75V27.125H4V13.825C4 11.375 4.72187 9.18021 6.16563 7.24062C7.60938 5.30104 9.5125 4.08333 11.875 3.5875V2.625C11.875 1.89583 12.1302 1.27604 12.6406 0.765625C13.151 0.255208 13.7708 0 14.5 0C15.2292 0 15.849 0.255208 16.3594 0.765625C16.8698 1.27604 17.125 1.89583 17.125 2.625V3.5875C19.4875 4.08333 21.3906 5.30104 22.8344 7.24062C24.2781 9.18021 25 11.375 25 13.825V27.125H28.5V29.75H0.5ZM14.5 35C13.5375 35 12.7135 34.6573 12.0281 33.9719C11.3427 33.2865 11 32.4625 11 31.5H18C18 32.4625 17.6573 33.2865 16.9719 33.9719C16.2865 34.6573 15.4625 35 14.5 35ZM6.625 27.125H22.375V13.825C22.375 11.6375 21.6094 9.77812 20.0781 8.24687C18.5469 6.71562 16.6875 5.95 14.5 5.95C12.3125 5.95 10.4531 6.71562 8.92188 8.24687C7.39062 9.77812 6.625 11.6375 6.625 13.825V27.125Z" fill="#FBFBFB" fill-opacity="0.8"/>
</svg>
