<svg width="31" height="31" viewBox="0 0 31 31" fill="none" xmlns="http://www.w3.org/2000/svg">
<path d="M4.52339 12.2868L8.51107 13.9748C8.96251 13.0746 9.44529 12.1868 9.95943 11.3115C10.4736 10.4362 11.019 9.59844 11.5959 8.79818L8.62393 8.19799L4.52339 12.2868ZM10.3168 15.3253L15.3202 20.3144C16.7498 19.6642 18.0915 18.9264 19.3455 18.1012C20.5995 17.2759 21.6152 16.4756 22.3927 15.7004C24.4242 13.6747 25.9164 11.5991 26.8694 9.4734C27.8225 7.34772 28.3366 4.94695 28.4118 2.27109C25.7283 2.34611 23.3207 2.85877 21.1889 3.80908C19.0571 4.75939 16.9755 6.24736 14.944 8.27301C14.1666 9.04826 13.364 10.0611 12.5364 11.3115C11.7087 12.5619 10.9689 13.8998 10.3168 15.3253ZM18.9317 11.7241C18.4301 11.224 18.1793 10.605 18.1793 9.86728C18.1793 9.12954 18.4301 8.51059 18.9317 8.01043C19.4333 7.51027 20.054 7.26019 20.7939 7.26019C21.5337 7.26019 22.1544 7.51027 22.656 8.01043C23.1576 8.51059 23.4084 9.12954 23.4084 9.86728C23.4084 10.605 23.1576 11.224 22.656 11.7241C22.1544 12.2243 21.5337 12.4744 20.7939 12.4744C20.054 12.4744 19.4333 12.2243 18.9317 11.7241ZM18.3674 26.0912L22.4679 22.0024L21.866 19.039C21.0635 19.6142 20.2233 20.1581 19.3455 20.6707C18.4677 21.1834 17.5774 21.6648 16.6745 22.115L18.3674 26.0912ZM30.6314 0.0578757C30.8571 3.45897 30.4308 6.55996 29.3523 9.36086C28.2739 12.1618 26.4932 14.8001 24.0103 17.2759L23.9351 17.3509L23.8599 17.426L24.6875 21.5523C24.7627 21.9274 24.7439 22.29 24.6311 22.6401C24.5182 22.9902 24.3238 23.3028 24.048 23.5779L17.615 30.03L14.4173 22.6026L8.02202 16.2256L0.573335 13.037L7.04391 6.62248C7.31978 6.3474 7.63328 6.15358 7.9844 6.04105C8.33551 5.92851 8.69917 5.90975 9.07537 5.98478L13.2135 6.81004C13.2386 6.78504 13.2637 6.76628 13.2888 6.75378C13.3138 6.74127 13.3389 6.72252 13.364 6.69751C15.8469 4.22171 18.4928 2.43989 21.3017 1.35204C24.1107 0.264192 27.2206 -0.167197 30.6314 0.0578757ZM3.09385 20.7645C3.97164 19.8892 5.0438 19.4454 6.31032 19.4328C7.57685 19.4203 8.64901 19.8517 9.5268 20.727C10.4046 21.6023 10.8372 22.6714 10.8247 23.9343C10.8121 25.1972 10.367 26.2663 9.48918 27.1416C8.83711 27.7918 7.82765 28.3295 6.4608 28.7546C5.09396 29.1797 3.04369 29.5799 0.309998 29.955C0.686194 27.2291 1.0812 25.1784 1.49502 23.803C1.90883 22.4276 2.44178 21.4147 3.09385 20.7645ZM4.67387 22.3775C4.32276 22.7527 4.00926 23.3404 3.73338 24.1406C3.4575 24.9409 3.21925 25.9662 3.01861 27.2166C4.2726 27.0165 5.30086 26.779 6.10342 26.5039C6.90597 26.2288 7.49534 25.9162 7.87154 25.5661C8.34805 25.1409 8.59258 24.6095 8.60512 23.9718C8.61766 23.3341 8.39821 22.7777 7.94678 22.3025C7.47026 21.8524 6.91224 21.6336 6.2727 21.6461C5.63317 21.6586 5.10023 21.9024 4.67387 22.3775Z" fill="#FBFBFB" fill-opacity="0.8"/>
</svg>
