<svg width="48" height="48" viewBox="0 0 48 48" fill="none" xmlns="http://www.w3.org/2000/svg">
<mask id="mask0_313_1398" style="mask-type:alpha" maskUnits="userSpaceOnUse" x="0" y="0" width="48" height="48">
<rect width="48" height="48" fill="#D9D9D9"/>
</mask>
<g mask="url(#mask0_313_1398)">
<path d="M36 42H14V16L28 2L30.5 4.5C30.7333 4.73333 30.925 5.05 31.075 5.45C31.225 5.85 31.3 6.23333 31.3 6.6V7.3L29.1 16H42C43.0667 16 44 16.4 44.8 17.2C45.6 18 46 18.9333 46 20V24C46 24.2333 45.9667 24.4833 45.9 24.75C45.8333 25.0167 45.7667 25.2667 45.7 25.5L39.7 39.6C39.4 40.2667 38.9 40.8333 38.2 41.3C37.5 41.7667 36.7667 42 36 42ZM18 38H36L42 24V20H24L26.7 9L18 17.7V38ZM14 16V20H8V38H14V42H4V16H14Z" fill="#084656"/>
</g>
</svg>
