<svg width="162" height="59" viewBox="0 0 162 59" fill="none" xmlns="http://www.w3.org/2000/svg">
<path d="M10.5971 35.6672C9.82627 36.2248 9.05734 36.9797 8.28747 37.9342C7.5176 38.8879 6.87226 39.9028 6.35146 40.9767C5.83066 42.0505 5.47875 43.1152 5.29855 44.1683C5.1174 45.2222 5.19665 46.137 5.5363 46.9133C5.87595 47.6889 6.53261 48.2457 7.50628 48.5837C8.479 48.9218 9.89421 48.9118 11.7519 48.5539C13.5624 48.157 15.4428 47.5207 17.3901 46.6449C19.3365 45.7707 21.1263 44.7657 22.7566 43.6322C24.3869 42.4987 25.7219 41.3155 26.7645 40.0826C27.8061 38.8506 28.3268 37.6964 28.3268 36.6226C28.3268 35.4692 27.8853 34.4956 27.0022 33.6994C26.1191 32.904 25.0087 32.198 23.6736 31.5816C22.3367 30.9651 20.8649 30.4092 19.2582 29.9104C17.6496 29.4132 16.1098 28.8771 14.6389 28.3005C13.1662 27.7246 11.8642 27.0576 10.733 26.302C9.59984 25.5471 8.85261 24.6117 8.49126 23.4981C7.99217 21.9868 8.18558 20.2675 9.06867 18.337C9.95176 16.4089 11.2528 14.5098 12.9746 12.6398C14.6955 10.7705 16.7108 9.0703 19.0204 7.53911C21.33 6.00875 23.6501 4.9051 25.9833 4.229C28.3155 3.55289 30.511 3.41452 32.5725 3.81057C34.633 4.20828 36.319 5.40224 37.6333 7.38997C37.9493 6.7934 38.3692 6.11812 38.89 5.36164C39.4098 4.60682 39.9193 3.87023 40.4184 3.15435C40.9166 2.43929 41.4034 1.80296 41.8789 1.24533C42.3544 0.688538 42.728 0.330598 42.9998 0.171514C43.4073 -0.0671128 44.063 -0.0563421 44.9697 0.201342C45.8745 0.460682 46.7236 0.838509 47.5171 1.33482C48.3087 1.83279 48.92 2.37881 49.3512 2.97455C49.7814 3.57194 49.7248 4.04837 49.1814 4.40714C48.32 5.08325 47.3473 6.04686 46.2604 7.30048C45.1735 8.55327 44.098 9.94526 43.0337 11.4756C41.9695 13.0076 40.9619 14.5993 40.0108 16.249C39.0598 17.8995 38.2786 19.4506 37.6672 20.9014C37.0559 22.3538 36.6709 23.6265 36.5124 24.7194C36.3539 25.8139 36.5228 26.5787 37.0219 27.0162C36.569 27.3741 35.9803 27.5034 35.2557 27.4039C34.5311 27.3053 33.8292 27.0261 33.1499 26.5688C32.4706 26.1114 31.8932 25.5156 31.4177 24.7791C30.9422 24.0433 30.7723 23.218 30.9082 22.3033C31.0441 21.1905 31.3724 19.9576 31.8932 18.6046C32.413 17.2532 32.9225 15.8902 33.4216 14.5181C33.9198 13.146 34.2934 11.8336 34.5424 10.5808C34.7906 9.32715 34.7123 8.22351 34.3047 7.26983C34.0773 6.7528 33.4782 6.60366 32.5046 6.8224C31.53 7.04114 30.3648 7.5184 29.0062 8.25416C27.6475 8.99076 26.2097 9.91543 24.6926 11.029C23.1745 12.1426 21.7603 13.325 20.447 14.5778C19.1327 15.8314 18.0119 17.0941 17.0844 18.366C16.156 19.6395 15.6239 20.7729 15.4881 21.7664C15.3522 22.7607 15.7702 23.5851 16.7448 24.2413C17.7175 24.8975 18.9865 25.5347 20.5488 26.1512C22.1112 26.7676 23.8199 27.4039 25.6776 28.0602C27.5343 28.7164 29.2439 29.5126 30.8063 30.4464C32.3687 31.3811 33.648 32.5344 34.6443 33.9065C35.6397 35.2786 36.0709 36.9788 35.935 39.0072C35.8897 40.0014 35.4699 41.0753 34.6783 42.2286C33.8858 43.3828 32.8319 44.5354 31.5196 45.6887C30.2053 46.8437 28.6891 47.9557 26.9682 49.0295C25.2464 50.1033 23.4123 51.0678 21.4659 51.9228C19.5186 52.7771 17.526 53.4838 15.4881 54.0406C13.4502 54.5974 11.4802 54.9355 9.57815 55.0556C7.94782 55.1352 6.56564 55.0747 5.43441 54.8767C4.30224 54.677 3.35122 54.3779 2.58134 53.9818C1.67467 53.464 1.01895 52.8268 0.611366 52.072C0.203786 51.3163 0 50.4712 0 49.5366C0 48.6028 0.157558 47.6184 0.475509 46.5836C0.791572 45.5503 1.22274 44.5163 1.76618 43.4822C2.67098 41.7729 3.74653 40.1415 4.99286 38.5904C6.2373 37.0393 7.49401 35.7269 8.76299 34.6531C8.98848 34.4948 9.26019 34.4252 9.57815 34.4443C9.89421 34.4641 10.1659 34.5437 10.3933 34.6829C10.6188 34.8221 10.7669 34.9911 10.8349 35.1891C10.9018 35.3897 10.8226 35.5479 10.5971 35.6672Z" fill="#0A4656"/>
<path d="M55.4298 29.9401C55.6553 29.6625 55.9271 29.5134 56.245 29.4927C56.5611 29.4736 56.845 29.5225 57.0941 29.6426C57.3432 29.762 57.5461 29.921 57.7055 30.1191C57.8631 30.3188 57.8753 30.5168 57.7395 30.7165C57.2404 31.6312 56.5167 32.8252 55.5657 34.295C54.6147 35.7666 53.5721 37.2389 52.4409 38.7096C51.3078 40.1812 50.1417 41.5143 48.9425 42.7066C47.7424 43.8998 46.6669 44.6753 45.7158 45.0332C45.1262 45.2329 44.4469 45.2926 43.6779 45.213C42.9071 45.1335 42.1835 44.9446 41.5042 44.6455C40.8249 44.348 40.2597 43.9503 39.8059 43.4532C39.354 42.956 39.1502 42.3893 39.1945 41.7521C39.2398 40.9575 39.4323 39.8936 39.7719 38.5605C40.1116 37.229 40.5645 35.8155 41.1306 34.3249C41.6976 32.8334 42.3193 31.3627 42.9986 29.9103C43.6779 28.4595 44.3799 27.2166 45.1045 26.1817C45.3309 25.8644 45.7941 25.7053 46.497 25.7053C47.199 25.7053 47.8896 25.8246 48.5689 26.0632C49.2482 26.3019 49.8133 26.6209 50.2672 27.0178C50.7191 27.4155 50.8332 27.8331 50.6068 28.2705C48.4783 31.8499 47.0292 34.6439 46.2593 36.6523C45.4885 38.6607 45.2403 39.9632 45.512 40.5598C45.6922 40.9973 46.0781 41.047 46.6669 40.709C47.2547 40.3717 47.9915 39.7246 48.8746 38.7701C49.7577 37.8156 50.7653 36.5827 51.8975 35.0714C53.0287 33.5601 54.2071 31.8499 55.4298 29.9401ZM51.1503 23.6762C50.8785 23.9951 50.4813 24.1741 49.9615 24.2122C49.4397 24.2528 48.9189 24.2031 48.3991 24.0631C47.8783 23.9239 47.4245 23.7151 47.0405 23.4367C46.6555 23.1591 46.4857 22.8608 46.531 22.5418C46.6216 21.9851 46.7688 21.3993 46.9725 20.782C47.1763 20.1664 47.3905 19.5888 47.6179 19.0519C47.8443 18.515 48.0698 18.0287 48.2972 17.5903C48.5236 17.1529 48.7048 16.814 48.8406 16.5754C49.1124 16.2174 49.6105 16.0293 50.3351 16.0086C51.0587 15.9896 51.772 16.0973 52.4749 16.3367C53.1768 16.5754 53.7542 16.8943 54.2071 17.2912C54.659 17.6889 54.7505 18.0875 54.4788 18.4844C54.343 18.7222 54.1279 19.071 53.8335 19.5284C53.5382 19.9857 53.2325 20.463 52.9164 20.9601C52.5994 21.4581 52.2815 21.9445 51.9654 22.4225C51.6484 22.9006 51.3767 23.3182 51.1503 23.6762Z" fill="#0A4656"/>
<path d="M60.1169 53.6238C59.9358 53.6636 59.698 53.6735 59.4037 53.6536C59.1083 53.6337 58.7347 53.6031 58.2828 53.565C57.4214 53.565 56.2892 53.0662 54.8863 52.0727C53.4833 51.1191 52.4861 49.6069 51.8974 47.5388C51.853 47.3408 51.8191 47.1212 51.7955 46.8826C51.7728 46.644 51.7615 46.4053 51.7615 46.1667C51.6709 44.696 51.8191 42.966 52.2031 40.9766C52.5889 38.9889 53.2333 36.741 54.1391 34.2354C54.9986 31.7298 56.0175 29.2143 57.1959 26.6888C58.3734 24.1634 59.6867 21.6288 61.1359 19.0826C62.585 16.577 63.9776 14.4592 65.3136 12.7292C66.6495 10.9991 67.9062 9.65684 69.0837 8.70234C69.446 8.50431 69.7856 8.40405 70.1026 8.40405C70.4649 8.40405 70.9065 8.48525 71.4273 8.64268C71.9471 8.80176 72.5255 9.10088 73.1595 9.53753L73.5671 9.71733C74.7898 10.3537 75.4455 10.99 75.537 11.6263C75.5814 11.8252 75.4455 12.0638 75.1295 12.3422C72.7283 14.2512 70.3961 16.8761 68.1327 20.2169C65.9127 23.5974 64.0333 27.1172 62.4945 30.7753C60.8641 34.4351 59.7093 37.9739 59.03 41.3942C58.4866 43.8211 58.2592 45.9687 58.3507 47.8371C58.3951 48.1561 58.4526 48.5629 58.5206 49.0601C58.5885 49.558 58.6904 50.1447 58.8263 50.8199C59.1885 52.1713 60.365 52.8681 62.3586 52.9087C61.7236 53.3852 60.9764 53.6238 60.1169 53.6238Z" fill="#0A4656"/>
<path d="M76.4874 20.3951C77.3026 20.0769 78.2197 20.1067 79.2386 20.4837C80.2576 20.8624 81.151 21.4888 81.9218 22.3637C82.6917 23.2395 83.2578 24.3026 83.6201 25.5554C83.9815 26.809 83.9362 28.1115 83.4833 29.4629C82.9851 30.8955 82.2615 32.4963 81.3095 34.2661C80.3585 36.0359 79.3056 37.7659 78.1508 39.4562C76.996 41.1473 75.8176 42.6876 74.6184 44.0796C73.4183 45.4724 72.3192 46.4857 71.3238 47.1221C70.7804 47.48 70.0558 47.6888 69.15 47.7485C68.2434 47.8081 67.3499 47.7485 66.4668 47.5695C65.5837 47.3905 64.8025 47.0831 64.1232 46.6448C63.4439 46.2082 63.0363 45.6704 62.9005 45.0341C62.7646 44.319 62.742 43.4043 62.8325 42.2899C62.9241 41.1763 63.0939 39.9732 63.342 38.6807C63.592 37.3889 63.909 36.0856 64.293 34.7732C64.678 33.4607 65.0629 32.2377 65.4479 31.1043C65.8328 29.9708 66.2055 29.0163 66.5687 28.2407C66.931 27.4652 67.248 26.9581 67.5197 26.7195C67.8358 26.4419 68.3113 26.3317 68.9463 26.3914C69.5803 26.4511 70.1916 26.601 70.7804 26.8388C71.3682 27.0774 71.8673 27.3666 72.2748 27.7038C72.6824 28.0427 72.8183 28.3509 72.6824 28.6285C72.3654 29.1861 71.9578 30.1498 71.4597 31.5219C70.9606 32.894 70.4747 34.3556 69.9992 35.9066C69.5237 37.4577 69.1161 38.9491 68.7764 40.3809C68.4368 41.8126 68.2886 42.8666 68.3349 43.5419C68.5613 43.5029 69.1048 43.0257 69.9652 42.1101C70.8247 41.1954 71.7757 40.0321 72.8183 38.6202C73.8599 37.2091 74.8901 35.6282 75.9091 33.8766C76.928 32.1275 77.6979 30.3975 78.2187 28.6865C78.7386 26.9772 78.9084 25.3863 78.7282 23.914C78.547 22.4441 77.7998 21.2709 76.4874 20.3951Z" fill="#0A4656"/>
<path d="M115.886 19.1431C117.243 19.6999 118.444 20.2973 119.486 20.932C120.528 21.5692 121.432 22.2254 122.203 22.9007C123.652 24.2537 124.105 26.3616 123.562 29.2251C123.425 29.9012 123.176 30.7364 122.814 31.7299C122.451 32.7241 122 33.8775 121.456 35.19C120.957 36.4229 120.471 37.6765 119.995 38.9483C119.519 40.2218 119.079 41.5144 118.671 42.8268C117.764 45.5321 117.312 47.7585 117.312 49.5076C117.312 51.4166 118.127 52.3901 119.758 52.4307C119.215 53.2659 118.196 53.5435 116.702 53.2659C115.931 53.1068 115.195 52.8276 114.493 52.4307C113.791 52.033 113.102 51.5152 112.422 50.8797C111.108 49.607 110.656 47.8579 111.065 45.6299C111.472 44.1973 111.969 42.6678 112.559 41.0363C113.147 39.4057 113.849 37.6955 114.664 35.9058C115.66 33.5999 116.43 31.6909 116.974 30.1788C117.29 29.2251 117.505 28.3203 117.619 27.4653C117.731 26.6102 117.677 25.8446 117.449 25.1685C117.132 23.8966 115.863 22.9015 113.645 22.1856C113.509 25.6457 112.105 29.9021 109.433 34.9513C106.807 40.1622 103.907 43.9205 100.738 46.2264C100.375 46.4651 100.103 46.6051 99.9232 46.644C99.8769 46.644 99.8553 46.6639 99.8553 46.7037C99.7647 46.7435 99.6967 46.7634 99.6515 46.7634C99.6062 46.7634 99.5382 46.7832 99.4477 46.8222C97.9532 47.1809 96.12 47.0417 93.9453 46.4046C91.681 45.6498 89.7563 44.6953 88.1713 43.5411C86.4957 42.3877 85.522 41.0363 85.2503 39.4844C85.0248 34.9903 86.1107 30.8939 88.5109 27.1951C89.6884 25.3259 90.8771 23.7748 92.0763 22.5419C93.2755 21.3098 94.5331 20.3943 95.8464 19.7977C96.8427 19.2807 97.8381 19.1614 98.8353 19.4389C99.3326 19.598 99.843 19.7977 100.365 20.0355C100.885 20.2741 101.461 20.5534 102.097 20.8715C102.276 20.9519 102.458 21.0406 102.639 21.1392C102.82 21.2394 103.002 21.3289 103.183 21.4076C104.224 21.9255 104.744 22.6215 104.744 23.4964C104.654 24.2521 104.314 25.3665 103.726 26.8364C103.363 27.6326 102.945 28.4082 102.47 29.1638C101.994 29.9195 101.438 30.6552 100.804 31.3711C99.5826 32.8824 98.1325 33.8759 96.4578 34.3539C95.5973 34.6332 94.8265 34.7127 94.1482 34.5926C93.7849 34.513 93.4226 34.4434 93.0622 34.3838C92.699 34.3241 92.3358 34.1949 91.9754 33.996C90.9781 36.8595 91.0687 39.027 92.2471 40.4986C93.3783 41.9701 94.669 42.5078 96.1191 42.1093C99.1976 40.9957 102.73 36.7999 106.715 29.5217V29.4621C106.941 29.0254 107.167 28.5084 107.395 27.9118C107.485 27.5937 107.575 27.3443 107.666 27.1661C107.757 26.9872 107.802 26.8587 107.802 26.7784C109.026 23.199 108.413 20.7332 105.969 19.3801C105.379 19.0628 105.199 18.5665 105.426 17.8887C105.697 17.1728 106.15 16.4967 106.783 15.8604C107.599 15.1851 108.3 14.7277 108.889 14.4891C109.659 14.2107 110.27 14.3101 110.723 14.7866C111.039 15.2638 111.311 15.6226 111.538 15.8604C111.946 16.4578 112.421 16.9938 112.965 17.4711C113.463 17.9492 114.436 18.5068 115.886 19.1431ZM99.3109 24.0342C98.9938 24.2338 98.6419 24.5222 98.2589 24.8992C97.874 25.2778 97.4315 25.7642 96.9342 26.3616C96.4352 26.8786 95.971 27.4056 95.5407 27.9417C95.1105 28.4786 94.7143 29.0263 94.352 29.5822C93.5377 30.7364 93.1302 31.4117 93.1302 31.6106C94.1718 31.7299 95.1671 31.3322 96.1191 30.4174C96.5267 29.9808 96.9229 29.5027 97.3079 28.9857C97.6909 28.4686 98.0211 27.9118 98.2919 27.3145C98.5646 26.6789 98.7787 26.0915 98.9382 25.5546C99.0948 25.0185 99.2203 24.5114 99.3109 24.0342Z" fill="#0A4656"/>
<path d="M134.724 48.8041C134.739 50.8747 134.697 51.7538 134.93 52.8608C135.141 53.8625 135.675 54.5949 136.21 55.3241C135.473 55.9894 133.107 58.8803 132.406 58.9938C131.631 59.1197 131.132 57.2928 130.967 56.5023C130.534 54.4475 130.58 52.3123 130.352 49.9533C126.423 50.8614 123.829 51.9386 122.965 50.5515C122.16 49.2648 121.203 47.6217 120.87 46.0392C120.295 43.2991 122.286 38.4504 123.322 36.485C126.785 29.9277 134.464 22.1948 136.787 21.8161C137.413 21.7142 138.275 22.0108 138.497 23.0639C138.621 23.6439 138.285 24.407 138.068 24.8238C138.832 25.1908 139.241 26.0501 139.305 27.0767C139.431 28.037 139.332 29.1986 138.99 30.2907C137.783 33.9753 136.87 37.6119 135.982 41.7348C136.904 41.5848 137.807 41.1664 138.729 41.0156C139.43 40.9037 140.139 41.0057 140.371 42.1126C140.614 43.2726 139.816 46.1825 139.698 47.0724L134.724 48.8041ZM136.872 26.2166L136.775 26.123C135.375 27.4404 133.936 28.7644 132.692 30.2741C126.374 37.9507 125.005 42.3148 124.874 43.8634C124.93 44.1269 125.379 44.271 126.349 44.1691C127.367 44.1136 128.929 43.7499 131.239 42.9387L136.872 26.2166Z" fill="#BFC6CA"/>
<path d="M162 25.8844C162 32.4035 155.272 41.2998 145.953 41.8781C142.397 42.1151 140.309 39.0254 140.309 36.1395C140.309 32.3024 143.092 28.09 145.953 25.3077C149.357 22.0116 155.272 19.3644 157.785 19.3644C159.371 19.3644 161.266 20.9942 161.266 21.7415C161.266 22.1144 160.338 22.1144 160.067 22.3522C161.808 22.8286 162 24.5263 162 25.8844ZM154.191 33.8303C155.892 32.1665 159.177 28.1248 159.177 25.8844C159.177 25.171 158.792 23.8809 157.708 23.8809C156.704 23.8809 155.698 25.137 155.311 25.137C155.001 25.137 154.924 24.7293 154.924 24.5263C147.964 27.9558 144.91 32.7788 144.679 36.2762C144.638 36.92 144.795 38.8912 145.877 38.8912C147.037 38.8912 149.513 37.5994 150.401 36.8869L154.191 33.8303Z" fill="#BFC6CA"/>
</svg>
