<svg width="48" height="48" viewBox="0 0 48 48" fill="none" xmlns="http://www.w3.org/2000/svg">
<mask id="mask0_313_1401" style="mask-type:alpha" maskUnits="userSpaceOnUse" x="0" y="0" width="48" height="48">
<rect width="48" height="48" fill="#D9D9D9"/>
</mask>
<g mask="url(#mask0_313_1401)">
<path d="M8 42C6.9 42 5.95833 41.6083 5.175 40.825C4.39167 40.0417 4 39.1 4 38V16C4 14.9 4.39167 13.9583 5.175 13.175C5.95833 12.3917 6.9 12 8 12H16V8C16 6.9 16.3917 5.95833 17.175 5.175C17.9583 4.39167 18.9 4 20 4H28C29.1 4 30.0417 4.39167 30.825 5.175C31.6083 5.95833 32 6.9 32 8V12H40C41.1 12 42.0417 12.3917 42.825 13.175C43.6083 13.9583 44 14.9 44 16V24.55C43.4 24.1167 42.7667 23.7417 42.1 23.425C41.4333 23.1083 40.7333 22.8333 40 22.6V16H8V38H22.15C22.25 38.7 22.4 39.3833 22.6 40.05C22.8 40.7167 23.05 41.3667 23.35 42H8ZM20 12H28V8H20V12ZM36 46C33.2333 46 30.875 45.025 28.925 43.075C26.975 41.125 26 38.7667 26 36C26 33.2333 26.975 30.875 28.925 28.925C30.875 26.975 33.2333 26 36 26C38.7667 26 41.125 26.975 43.075 28.925C45.025 30.875 46 33.2333 46 36C46 38.7667 45.025 41.125 43.075 43.075C41.125 45.025 38.7667 46 36 46ZM37 35.6V30H35V36.4L39.3 40.7L40.7 39.3L37 35.6Z" fill="#084656"/>
</g>
</svg>
