<svg width="20" height="21" viewBox="0 0 20 21" fill="none" xmlns="http://www.w3.org/2000/svg">
<mask id="mask0_500_720" style="mask-type:alpha" maskUnits="userSpaceOnUse" x="0" y="0" width="20" height="21">
<rect y="0.5" width="20" height="20" fill="#D9D9D9"/>
</mask>
<g mask="url(#mask0_500_720)">
<path d="M3.33341 17.9998C2.87508 17.9998 2.48272 17.8366 2.15633 17.5103C1.82994 17.1839 1.66675 16.7915 1.66675 16.3332V7.1665C1.66675 6.70817 1.82994 6.31581 2.15633 5.98942C2.48272 5.66303 2.87508 5.49984 3.33341 5.49984H6.66675V3.83317C6.66675 3.37484 6.82994 2.98248 7.15633 2.65609C7.48272 2.3297 7.87508 2.1665 8.33342 2.1665H11.6667C12.1251 2.1665 12.5174 2.3297 12.8438 2.65609C13.1702 2.98248 13.3334 3.37484 13.3334 3.83317V5.49984H16.6667C17.1251 5.49984 17.5174 5.66303 17.8438 5.98942C18.1702 6.31581 18.3334 6.70817 18.3334 7.1665V16.3332C18.3334 16.7915 18.1702 17.1839 17.8438 17.5103C17.5174 17.8366 17.1251 17.9998 16.6667 17.9998H3.33341ZM3.33341 16.3332H16.6667V7.1665H3.33341V16.3332ZM8.33342 5.49984H11.6667V3.83317H8.33342V5.49984Z" fill="#626262"/>
</g>
</svg>
