<svg width="48" height="48" viewBox="0 0 48 48" fill="none" xmlns="http://www.w3.org/2000/svg">
<mask id="mask0_313_1407" style="mask-type:alpha" maskUnits="userSpaceOnUse" x="0" y="0" width="48" height="48">
<rect width="48" height="48" fill="#D9D9D9"/>
</mask>
<g mask="url(#mask0_313_1407)">
<path d="M18 6V2H30V6H18ZM22 28H26V16H22V28ZM24 44C21.5333 44 19.2083 43.525 17.025 42.575C14.8417 41.625 12.9333 40.3333 11.3 38.7C9.66667 37.0667 8.375 35.1583 7.425 32.975C6.475 30.7917 6 28.4667 6 26C6 23.5333 6.475 21.2083 7.425 19.025C8.375 16.8417 9.66667 14.9333 11.3 13.3C12.9333 11.6667 14.8417 10.375 17.025 9.425C19.2083 8.475 21.5333 8 24 8C26.0667 8 28.05 8.33333 29.95 9C31.85 9.66667 33.6333 10.6333 35.3 11.9L38.1 9.1L40.9 11.9L38.1 14.7C39.3667 16.3667 40.3333 18.15 41 20.05C41.6667 21.95 42 23.9333 42 26C42 28.4667 41.525 30.7917 40.575 32.975C39.625 35.1583 38.3333 37.0667 36.7 38.7C35.0667 40.3333 33.1583 41.625 30.975 42.575C28.7917 43.525 26.4667 44 24 44ZM24 40C27.8667 40 31.1667 38.6333 33.9 35.9C36.6333 33.1667 38 29.8667 38 26C38 22.1333 36.6333 18.8333 33.9 16.1C31.1667 13.3667 27.8667 12 24 12C20.1333 12 16.8333 13.3667 14.1 16.1C11.3667 18.8333 10 22.1333 10 26C10 29.8667 11.3667 33.1667 14.1 35.9C16.8333 38.6333 20.1333 40 24 40Z" fill="#084656"/>
</g>
</svg>
