<svg width="20" height="21" viewBox="0 0 20 21" fill="none" xmlns="http://www.w3.org/2000/svg">
<mask id="mask0_500_725" style="mask-type:alpha" maskUnits="userSpaceOnUse" x="0" y="0" width="20" height="21">
<rect y="0.5" width="20" height="20" fill="#D9D9D9"/>
</mask>
<g mask="url(#mask0_500_725)">
<path d="M9.99992 10.4998C10.4583 10.4998 10.8506 10.3366 11.177 10.0103C11.5034 9.68387 11.6666 9.2915 11.6666 8.83317C11.6666 8.37484 11.5034 7.98248 11.177 7.65609C10.8506 7.3297 10.4583 7.1665 9.99992 7.1665C9.54158 7.1665 9.14922 7.3297 8.82284 7.65609C8.49645 7.98248 8.33325 8.37484 8.33325 8.83317C8.33325 9.2915 8.49645 9.68387 8.82284 10.0103C9.14922 10.3366 9.54158 10.4998 9.99992 10.4998ZM9.99992 16.6248C11.6944 15.0693 12.9513 13.6561 13.7708 12.3853C14.5902 11.1144 14.9999 9.98595 14.9999 8.99984C14.9999 7.48595 14.5173 6.24637 13.552 5.28109C12.5867 4.31581 11.4027 3.83317 9.99992 3.83317C8.59714 3.83317 7.41311 4.31581 6.44784 5.28109C5.48256 6.24637 4.99992 7.48595 4.99992 8.99984C4.99992 9.98595 5.40964 11.1144 6.22909 12.3853C7.04853 13.6561 8.30547 15.0693 9.99992 16.6248ZM9.99992 18.8332C7.76381 16.9304 6.09367 15.163 4.9895 13.5311C3.88534 11.8991 3.33325 10.3887 3.33325 8.99984C3.33325 6.9165 4.00339 5.25678 5.34367 4.02067C6.68395 2.78456 8.23603 2.1665 9.99992 2.1665C11.7638 2.1665 13.3159 2.78456 14.6562 4.02067C15.9964 5.25678 16.6666 6.9165 16.6666 8.99984C16.6666 10.3887 16.1145 11.8991 15.0103 13.5311C13.9062 15.163 12.236 16.9304 9.99992 18.8332Z" fill="#626262"/>
</g>
</svg>
