<svg width="40" height="40" viewBox="0 0 40 40" fill="none" xmlns="http://www.w3.org/2000/svg">
<mask id="mask0_130_797" style="mask-type:alpha" maskUnits="userSpaceOnUse" x="0" y="0" width="40" height="40">
<rect width="40" height="40" fill="#D9D9D9"/>
</mask>
<g mask="url(#mask0_130_797)">
<path d="M9.74992 28.4997C11.1666 27.4163 12.7499 26.5622 14.4999 25.9372C16.2499 25.3122 18.0833 24.9997 19.9999 24.9997C21.9166 24.9997 23.7499 25.3122 25.4999 25.9372C27.2499 26.5622 28.8333 27.4163 30.2499 28.4997C31.2221 27.3608 31.9791 26.0691 32.5208 24.6247C33.0624 23.1802 33.3333 21.6386 33.3333 19.9997C33.3333 16.3052 32.0346 13.1594 29.4374 10.5622C26.8402 7.96495 23.6944 6.66634 19.9999 6.66634C16.3055 6.66634 13.1596 7.96495 10.5624 10.5622C7.9652 13.1594 6.66659 16.3052 6.66659 19.9997C6.66659 21.6386 6.93742 23.1802 7.47908 24.6247C8.02075 26.0691 8.7777 27.3608 9.74992 28.4997ZM19.9999 21.6663C18.361 21.6663 16.9791 21.1038 15.8541 19.9788C14.7291 18.8538 14.1666 17.4719 14.1666 15.833C14.1666 14.1941 14.7291 12.8122 15.8541 11.6872C16.9791 10.5622 18.361 9.99967 19.9999 9.99967C21.6388 9.99967 23.0208 10.5622 24.1458 11.6872C25.2708 12.8122 25.8333 14.1941 25.8333 15.833C25.8333 17.4719 25.2708 18.8538 24.1458 19.9788C23.0208 21.1038 21.6388 21.6663 19.9999 21.6663ZM19.9999 36.6663C17.6944 36.6663 15.5277 36.2288 13.4999 35.3538C11.4721 34.4788 9.70825 33.2913 8.20825 31.7913C6.70825 30.2913 5.52075 28.5275 4.64575 26.4997C3.77075 24.4719 3.33325 22.3052 3.33325 19.9997C3.33325 17.6941 3.77075 15.5275 4.64575 13.4997C5.52075 11.4719 6.70825 9.70801 8.20825 8.20801C9.70825 6.70801 11.4721 5.52051 13.4999 4.64551C15.5277 3.77051 17.6944 3.33301 19.9999 3.33301C22.3055 3.33301 24.4721 3.77051 26.4999 4.64551C28.5277 5.52051 30.2916 6.70801 31.7916 8.20801C33.2916 9.70801 34.4791 11.4719 35.3541 13.4997C36.2291 15.5275 36.6666 17.6941 36.6666 19.9997C36.6666 22.3052 36.2291 24.4719 35.3541 26.4997C34.4791 28.5275 33.2916 30.2913 31.7916 31.7913C30.2916 33.2913 28.5277 34.4788 26.4999 35.3538C24.4721 36.2288 22.3055 36.6663 19.9999 36.6663ZM19.9999 33.333C21.4721 33.333 22.861 33.1177 24.1666 32.6872C25.4721 32.2566 26.6666 31.6386 27.7499 30.833C26.6666 30.0275 25.4721 29.4094 24.1666 28.9788C22.861 28.5483 21.4721 28.333 19.9999 28.333C18.5277 28.333 17.1388 28.5483 15.8333 28.9788C14.5277 29.4094 13.3333 30.0275 12.2499 30.833C13.3333 31.6386 14.5277 32.2566 15.8333 32.6872C17.1388 33.1177 18.5277 33.333 19.9999 33.333ZM19.9999 18.333C20.7221 18.333 21.3194 18.0969 21.7916 17.6247C22.2638 17.1525 22.4999 16.5552 22.4999 15.833C22.4999 15.1108 22.2638 14.5136 21.7916 14.0413C21.3194 13.5691 20.7221 13.333 19.9999 13.333C19.2777 13.333 18.6805 13.5691 18.2083 14.0413C17.736 14.5136 17.4999 15.1108 17.4999 15.833C17.4999 16.5552 17.736 17.1525 18.2083 17.6247C18.6805 18.0969 19.2777 18.333 19.9999 18.333Z" fill="#1C1B1F"/>
</g>
</svg>
